<?xml version="1.0" encoding="UTF-8" standalone="no"?>
<svg
   width="64pt"
   height="64pt"
   viewBox="0 0 22.577778 22.577778"
   version="1.1"
   id="svg831"
   inkscape:version="1.1.2 (1:1.1+202202050950+0a00cf5339)"
   sodipodi:docname="18 - Rating.svg"
   inkscape:export-filename="/media/taufikramadhan/Data/Tr Design Studio/Project Design/TR Creative Design/Icon Design/Project Hiring/Icon Icons/019 - Commerce And Shopping/5 - Send/18 - Rating.png"
   inkscape:export-xdpi="576"
   inkscape:export-ydpi="576"
   xmlns:inkscape="http://www.inkscape.org/namespaces/inkscape"
   xmlns:sodipodi="http://sodipodi.sourceforge.net/DTD/sodipodi-0.dtd"
   xmlns="http://www.w3.org/2000/svg"
   xmlns:svg="http://www.w3.org/2000/svg"
   xmlns:rdf="http://www.w3.org/1999/02/22-rdf-syntax-ns#"
   xmlns:cc="http://creativecommons.org/ns#"
   xmlns:dc="http://purl.org/dc/elements/1.1/">
  <defs
     id="defs825">
    <pattern
       id="EMFhbasepattern"
       patternUnits="userSpaceOnUse"
       width="6"
       height="6"
       x="0"
       y="0" />
    <pattern
       id="EMFhbasepattern-9"
       patternUnits="userSpaceOnUse"
       width="6"
       height="6"
       x="0"
       y="0" />
    <pattern
       id="EMFhbasepattern-0"
       patternUnits="userSpaceOnUse"
       width="6"
       height="6"
       x="0"
       y="0" />
    <pattern
       id="EMFhbasepattern-7"
       patternUnits="userSpaceOnUse"
       width="6"
       height="6"
       x="0"
       y="0" />
    <pattern
       id="EMFhbasepattern-2"
       patternUnits="userSpaceOnUse"
       width="6"
       height="6"
       x="0"
       y="0" />
    <pattern
       id="EMFhbasepattern-98"
       patternUnits="userSpaceOnUse"
       width="6"
       height="6"
       x="0"
       y="0" />
    <pattern
       id="EMFhbasepattern-6"
       patternUnits="userSpaceOnUse"
       width="6"
       height="6"
       x="0"
       y="0" />
    <pattern
       id="EMFhbasepattern-01"
       patternUnits="userSpaceOnUse"
       width="6"
       height="6"
       x="0"
       y="0" />
    <pattern
       id="EMFhbasepattern-07"
       patternUnits="userSpaceOnUse"
       width="6"
       height="6"
       x="0"
       y="0" />
    <pattern
       id="EMFhbasepattern-8"
       patternUnits="userSpaceOnUse"
       width="6"
       height="6"
       x="0"
       y="0" />
    <pattern
       id="EMFhbasepattern-4"
       patternUnits="userSpaceOnUse"
       width="6"
       height="6"
       x="0"
       y="0" />
    <pattern
       id="EMFhbasepattern-40"
       patternUnits="userSpaceOnUse"
       width="6"
       height="6"
       x="0"
       y="0" />
    <pattern
       id="EMFhbasepattern-08"
       patternUnits="userSpaceOnUse"
       width="6"
       height="6"
       x="0"
       y="0" />
    <pattern
       id="EMFhbasepattern-04"
       patternUnits="userSpaceOnUse"
       width="6"
       height="6"
       x="0"
       y="0" />
    <pattern
       id="EMFhbasepattern-014"
       patternUnits="userSpaceOnUse"
       width="6"
       height="6"
       x="0"
       y="0" />
    <pattern
       id="EMFhbasepattern-27"
       patternUnits="userSpaceOnUse"
       width="6"
       height="6"
       x="0"
       y="0" />
    <pattern
       id="EMFhbasepattern-09"
       patternUnits="userSpaceOnUse"
       width="6"
       height="6"
       x="0"
       y="0" />
    <pattern
       id="EMFhbasepattern-5"
       patternUnits="userSpaceOnUse"
       width="6"
       height="6"
       x="0"
       y="0" />
    <pattern
       id="EMFhbasepattern-018"
       patternUnits="userSpaceOnUse"
       width="6"
       height="6"
       x="0"
       y="0" />
  </defs>
  <sodipodi:namedview
     id="base"
     pagecolor="#ffffff"
     bordercolor="#666666"
     borderopacity="1.0"
     inkscape:pageopacity="0.0"
     inkscape:pageshadow="2"
     inkscape:zoom="4.4249417"
     inkscape:cx="41.243481"
     inkscape:cy="44.746352"
     inkscape:document-units="pt"
     inkscape:current-layer="layer1"
     showgrid="false"
     units="pt"
     inkscape:window-width="1366"
     inkscape:window-height="705"
     inkscape:window-x="0"
     inkscape:window-y="31"
     inkscape:window-maximized="1"
     inkscape:pagecheckerboard="true"
     inkscape:showpageshadow="false"
     inkscape:object-paths="true"
     inkscape:snap-intersection-paths="true"
     inkscape:snap-smooth-nodes="true"
     inkscape:snap-midpoints="true"
     showguides="true"
     inkscape:snap-bbox="true"
     inkscape:bbox-nodes="true"
     inkscape:snap-nodes="false"
     inkscape:snap-global="true"
     inkscape:document-rotation="0">
    <inkscape:grid
       type="xygrid"
       id="grid1378" />
    <sodipodi:guide
       position="0.97013831,21.607643"
       orientation="78.000048,0"
       id="guide1380"
       inkscape:locked="false" />
    <sodipodi:guide
       position="0.97013831,0.97013129"
       orientation="0,78.000005"
       id="guide1382"
       inkscape:locked="false" />
    <sodipodi:guide
       position="21.607639,0.97013129"
       orientation="-78.000048,0"
       id="guide1384"
       inkscape:locked="false" />
    <sodipodi:guide
       position="21.607639,21.607643"
       orientation="0,-78.000005"
       id="guide1386"
       inkscape:locked="false" />
  </sodipodi:namedview>
  <metadata
     id="metadata828">
    <rdf:RDF>
      <cc:Work
         rdf:about="">
        <dc:format>image/svg+xml</dc:format>
        <dc:type
           rdf:resource="http://purl.org/dc/dcmitype/StillImage" />
      </cc:Work>
    </rdf:RDF>
  </metadata>
  <g
     inkscape:label="Icon"
     inkscape:groupmode="layer"
     id="layer1"
     transform="translate(0,-274.42223)">
    <g
       id="g168288"
       style="display:inline;stroke-width:0.794897"
       transform="matrix(1.2580247,0,0,1.2580247,-114.48283,-115.64421)">
      <path
         style="color:#000000;fill:#dc1c4b;stroke-width:0.794897;stroke-linecap:round;stroke-linejoin:round;stroke-miterlimit:1.5;-inkscape-stroke:none"
         d="m 92.832031,311.36328 c -0.581364,0 -1.058596,0.47723 -1.058594,1.05859 v 12.96485 c -10e-7,0.40487 0.09303,0.75123 0.332032,0.99023 0.239001,0.239 0.585362,0.33203 0.990234,0.33203 h 13.757817 c 0.40487,0 0.75123,-0.093 0.99023,-0.33203 0.239,-0.239 0.33399,-0.58536 0.33398,-0.99023 v -12.96485 c 2e-5,-0.58137 -0.47723,-1.05859 -1.05859,-1.05859 z"
         id="path383500" />
      <path
         id="path153680"
         style="color:#000000;fill:#b01d47;fill-opacity:1;stroke-width:0.794897;stroke-linecap:round;stroke-linejoin:round;stroke-miterlimit:1.5;-inkscape-stroke:none"
         d="m 92.832063,311.36346 c -0.581364,0 -1.058852,0.47697 -1.05885,1.05833 v 1.73168 c 0.156195,-0.0912 0.337048,-0.14418 0.529683,-0.14418 h 14.286984 c 0.58136,0 1.05887,0.47697 1.05885,1.05834 v 11.45976 c 0.071,-0.0419 0.13606,-0.0916 0.19482,-0.15038 0.239,-0.239 0.33436,-0.58525 0.33435,-0.99012 v -12.9651 c 2e-5,-0.58137 -0.47749,-1.05833 -1.05885,-1.05833 z" />
      <path
         id="path383506"
         style="color:#000000;fill:#801231;stroke-width:3.00434;stroke-linecap:round;stroke-linejoin:round;stroke-miterlimit:1.5;-inkscape-stroke:none"
         d="m 350.86133,118.28711 c -2.19728,0 -4.00196,1.80273 -4.00195,4 v 2.99805 h 62.00195 v -2.99805 c 7e-5,-2.1973 -1.80469,-4 -4.00195,-4 z"
         transform="matrix(0.26458334,0,0,0.26458334,0,280.06666)" />
      <path
         style="color:#000000;fill:#ececec;stroke-width:3.00434;stroke-linecap:round;stroke-linejoin:round;stroke-miterlimit:1.5;-inkscape-stroke:none"
         d="m 353.85742,137.28711 c -1.64471,0 -2.99609,1.35335 -2.99609,2.99805 v 29.00195 c -2e-5,2.40922 2.87147,3.84591 4.79883,2.40039 l 4.53125,-3.4043 h 41.58984 a 1.0000006,1.0000006 0 0 0 0.041,-0.006 1.0000006,1.0000006 0 0 0 0.0332,0.006 c 1.6447,0 3.00391,-1.35139 3.00391,-2.99609 v -25.00195 c 0,-1.64467 -1.35921,-2.99805 -3.00391,-2.99805 z"
         transform="matrix(0.26458334,0,0,0.26458334,0,280.06666)"
         id="path383512" />
      <path
         style="color:#000000;fill:#fd913c;stroke-width:0.794897;stroke-linecap:round;stroke-linejoin:round;stroke-miterlimit:1.5;-inkscape-stroke:none"
         d="m 93.625,313.74414 c -0.364962,0 -0.666016,0.303 -0.666016,0.66797 v 0.78125 c 0,0.36496 0.301046,0.66797 0.666016,0.66797 h 0.919922 c 0.36497,0 0.667969,-0.30301 0.667969,-0.66797 v -0.78125 c 0,-0.36497 -0.303007,-0.66797 -0.667969,-0.66797 z"
         id="path383566" />
      <path
         style="color:#000000;fill:#fca311;stroke-width:0.794897;stroke-linecap:round;stroke-linejoin:round;stroke-miterlimit:1.5;-inkscape-stroke:none"
         d="m 95.664062,317.97852 c -0.223855,0 -0.448195,0.11231 -0.558593,0.33593 l -0.214844,0.43164 -0.476563,0.0703 c -0.493529,0.0718 -0.702841,0.71244 -0.345703,1.06054 l 0.345703,0.33789 -0.08008,0.47461 c -0.08424,0.49158 0.460908,0.88838 0.902344,0.65625 l 0.427734,-0.22461 0.425782,0.22461 c 0.441436,0.23213 0.988535,-0.16467 0.904297,-0.65625 l -0.08203,-0.47461 0.345703,-0.33789 c 0.357185,-0.3481 0.14786,-0.98877 -0.345703,-1.06054 l -0.478515,-0.0703 -0.212891,-0.43164 c -0.110398,-0.22362 -0.332785,-0.33593 -0.556641,-0.33593 z"
         id="path383524" />
      <path
         style="color:#000000;fill:#fca311;stroke-width:0.794897;stroke-linecap:round;stroke-linejoin:round;stroke-miterlimit:1.5;-inkscape-stroke:none"
         d="m 104.02344,317.97852 c -0.22386,0 -0.4482,0.11231 -0.5586,0.33593 l -0.21484,0.43164 -0.47656,0.0703 c -0.49353,0.0718 -0.70284,0.71244 -0.34571,1.06054 l 0.34571,0.33789 -0.082,0.47461 c -0.0842,0.49158 0.46286,0.88838 0.90429,0.65625 l 0.42774,-0.22461 0.42578,0.22461 c 0.44144,0.23213 0.98853,-0.16467 0.9043,-0.65625 l -0.082,-0.47461 0.34571,-0.33789 c 0.35718,-0.3481 0.14785,-0.98877 -0.34571,-1.06054 l -0.47851,-0.0703 -0.21289,-0.43164 c -0.1104,-0.22362 -0.33279,-0.33593 -0.55664,-0.33593 z"
         id="path383530" />
      <path
         style="color:#000000;fill:#fca311;stroke-width:0.794897;stroke-linecap:round;stroke-linejoin:round;stroke-miterlimit:1.5;-inkscape-stroke:none"
         d="m 99.851562,317.19531 c -0.248268,0 -0.496186,0.12399 -0.61914,0.37305 l -0.265625,0.54101 -0.595703,0.0859 c -0.549673,0.0799 -0.78059,0.79005 -0.382813,1.17774 l 0.429688,0.41992 -0.101563,0.59375 c -0.09381,0.54748 0.510315,0.98703 1.001953,0.72851 l 0.533203,-0.28125 0.533208,0.28125 c 0.49163,0.25852 1.09576,-0.18103 1.00195,-0.72851 l -0.10156,-0.59375 0.42968,-0.41992 c 0.39783,-0.3877 0.16885,-1.09782 -0.38086,-1.17774 l -0.59765,-0.0879 -0.26563,-0.53906 c -0.12295,-0.24906 -0.37087,-0.37305 -0.619138,-0.37305 z"
         id="path383536" />
    </g>
    <path
       id="rect89574"
       style="color:#000000;display:inline;fill:#000000;stroke-width:1;stroke-linecap:round;stroke-linejoin:round;stroke-miterlimit:1.5;-inkscape-stroke:none"
       d="m 2.3021997,276.05872 c -0.7313699,0 -1.33206203,0.60004 -1.33205864,1.33141 v 16.31041 c -3.39e-6,0.50934 0.11734354,0.94493 0.41801274,1.2456 0.3006721,0.30067 0.7362594,0.41737 1.2455968,0.41737 H 19.941424 c 0.509338,0 0.944928,-0.11661 1.245597,-0.41737 0.300665,-0.30067 0.420629,-0.73626 0.420615,-1.2456 v -16.31041 c 2.4e-5,-0.73138 -0.600695,-1.33141 -1.332058,-1.33141 z m 0,0.66571 H 20.275578 c 0.371593,0 0.665705,0.2941 0.665705,0.6657 v 0.33155 H 1.6364949 v -0.33155 c -3.4e-6,-0.3716 0.294105,-0.6657 0.6657048,-0.6657 z m -0.6657048,1.66361 H 20.941283 v 15.3125 c 0,0.40981 -0.08835,0.63839 -0.223637,0.77363 -0.135238,0.13525 -0.36642,0.22364 -0.776222,0.22364 H 2.6337506 c -0.4098079,0 -0.6383744,-0.0883 -0.7736222,-0.22364 -0.135248,-0.13524 -0.2236369,-0.36382 -0.2236335,-0.77363 z m 1.6415081,0.6657 c -0.449414,0.0113 -0.8158778,0.38862 -0.8158778,0.84059 v 0.9823 c 0,0.45913 0.3781902,0.84059 0.8373301,0.84059 h 1.1578336 c 0.4591399,0 0.8399331,-0.38146 0.8399331,-0.84059 v -0.9823 c 0,-0.45914 -0.3808031,-0.84059 -0.8399331,-0.84059 H 3.2994553 c -0.00716,0 -0.014313,-1.9e-4 -0.021435,0 z m 3.0171237,0.33416 a 0.33285258,0.33285258 0 0 0 -0.3322,0.33155 0.33285258,0.33285258 0 0 0 0.3322,0.33414 h 0.3341538 a 0.33285258,0.33285258 0 0 0 0.3315512,-0.33414 0.33285258,0.33285258 0 0 0 -0.3315512,-0.33155 z m 1.6655629,0 a 0.33285258,0.33285258 0 0 0 -0.334154,0.33155 0.33285258,0.33285258 0 0 0 0.334154,0.33414 h 3.3272224 a 0.33285258,0.33285258 0 0 0 0.334154,-0.33414 0.33285258,0.33285258 0 0 0 -0.334154,-0.33155 z m 11.6491834,0 a 0.33285258,0.33285258 0 0 0 -0.331554,0.33155 0.33285258,0.33285258 0 0 0 0.331554,0.33414 h 0.331551 a 0.33285258,0.33285258 0 0 0 0.334154,-0.33414 0.33285258,0.33285258 0 0 0 -0.334154,-0.33155 z m -16.3104177,0.33155 h 1.1578336 c 0.1023152,0 0.1742283,0.0725 0.1742283,0.17488 v 0.9823 c 0,0.10228 -0.071936,0.17488 -0.1742283,0.17488 H 3.2994553 c -0.1023025,0 -0.1742282,-0.0726 -0.1742282,-0.17488 v -0.9823 c 0,-0.10228 0.071923,-0.17488 0.1742282,-0.17488 z m 2.9956714,0.99985 a 0.33285258,0.33285258 0 0 0 -0.3322,0.33221 0.33285258,0.33285258 0 0 0 0.3322,0.33155 h 3.329176 a 0.33285258,0.33285258 0 0 0 0.3315512,-0.33155 0.33285258,0.33285258 0 0 0 -0.3315512,-0.33221 z m -2.9956714,1.66361 c -0.5474456,0 -0.9972556,0.45048 -0.9972556,0.99792 v 9.65336 c -6.7e-6,0.80192 0.9557755,1.28012 1.5973018,0.79897 l 1.5082374,-1.13312 H 19.278319 c 0.547456,0 0.997255,-0.44981 0.997259,-0.99725 v -8.32196 c 0,-0.54744 -0.449803,-0.99792 -0.997259,-0.99792 z m 0,0.66571 H 19.278319 c 0.190138,0 0.331552,0.14207 0.331554,0.33221 v 8.32196 c 0,0.19014 -0.141416,0.33154 -0.331554,0.33154 H 5.297222 a 0.33288587,0.33288587 0 0 0 -0.1989326,0.0663 l -1.5992525,1.19945 c -0.2361954,0.17713 -0.5311359,0.0294 -0.5311326,-0.2659 v -9.65336 c 0,-0.19013 0.1414191,-0.33221 0.331551,-0.33221 z m 7.8337337,0.3491 c -0.312329,0 -0.624793,0.15605 -0.779474,0.46937 l -0.334803,0.67807 -0.7482652,0.10793 c -0.691501,0.10052 -0.9821437,0.99647 -0.4817266,1.4842 l 0.5415344,0.52788 -0.1287211,0.74501 c -0.1180279,0.68874 0.6420593,1.24189 1.2605475,0.91665 l 0.668958,-0.35236 0.672205,0.35236 c 0.618496,0.32524 1.378664,-0.22787 1.260548,-0.91665 l -0.127419,-0.74631 0.540232,-0.52658 c 0.500494,-0.48773 0.21245,-1.38304 -0.479124,-1.48354 l -0.737867,-0.10593 -0.347804,-0.68066 c -0.154673,-0.31333 -0.466495,-0.46937 -0.778821,-0.46937 z m 0,0.63645 c 0.06988,0 0.139318,0.0429 0.181378,0.12808 l 0.427768,0.83538 h 6.66e-4 a 0.33285194,0.33285194 0 0 0 0.24964,0.18397 l 0.909491,0.13003 c 0.187912,0.0273 0.246511,0.21657 0.110517,0.3491 l -0.665705,0.64881 a 0.33285194,0.33285194 0 0 0 -0.09231,0.31659 l 0.153425,0.89715 c 0.03209,0.18715 -0.126414,0.30226 -0.294498,0.21387 l -0.795724,-0.4167 c -0.09814,-0.0654 -0.228223,-0.077 -0.340005,-0.0182 l -0.824977,0.43492 c -0.1680869,0.0884 -0.3272245,-0.0267 -0.2951473,-0.21389 l 0.1566563,-0.90883 a 0.33285194,0.33285194 0 0 0 -0.095559,-0.3049 l -0.6657052,-0.6488 c -0.1359862,-0.13253 -0.074789,-0.31917 0.1131216,-0.34651 l 0.9211953,-0.13521 a 0.33285194,0.33285194 0 0 0 0.260693,-0.20154 l 0.403061,-0.81522 c 0.04206,-0.0852 0.11214,-0.12808 0.18203,-0.12808 z m -5.2684305,0.34651 c -0.2816131,0 -0.5638785,0.14125 -0.7027611,0.42256 l -0.2892954,0.54739 -0.5805411,0.0839 c -0.6208629,0.0903 -0.884199,0.89675 -0.4349183,1.33467 l 0.4362197,0.42517 -0.1020661,0.59679 c -0.1059634,0.61842 0.5804014,1.11765 1.135729,0.82562 l 0.5356825,-0.28148 0.5376365,0.28148 c 0.5553415,0.29203 1.2436597,-0.2072 1.1376799,-0.82562 l -0.1027177,-0.59875 0.4342701,-0.42321 c 0.4493275,-0.43791 0.1859449,-1.24432 -0.434918,-1.33467 l -0.5720905,-0.0839 -0.2977468,-0.54739 c -0.1388826,-0.28131 -0.4185453,-0.42256 -0.7001627,-0.42256 z m 10.5167065,0 c -0.281623,0 -0.563875,0.14124 -0.702761,0.42256 l -0.284097,0.54544 -0.58574,0.0858 c -0.620873,0.0903 -0.884199,0.89674 -0.434918,1.33466 l 0.435567,0.42387 -0.104013,0.5981 c -0.105926,0.61842 0.582348,1.11762 1.137679,0.82562 l 0.518132,-0.27174 0.555836,0.27174 c 0.555344,0.29204 1.243706,-0.20719 1.13768,-0.82562 l -0.104013,-0.5981 0.434919,-0.42387 c 0.449317,-0.4379 0.185953,-1.24366 -0.434919,-1.33401 l -0.58314,-0.0858 -0.286047,-0.5461 c -0.138886,-0.28132 -0.418539,-0.42256 -0.700159,-0.42256 z m -10.5251576,0.63515 c 0.041473,-0.004 0.083919,0.0234 0.1118182,0.08 l 0.3803105,0.70276 h 6.657e-4 a 0.33285194,0.33285194 0 0 0 0.2502883,0.18658 l 0.7398177,0.10794 c 0.1173611,0.0171 0.1512347,0.11611 0.066311,0.19893 l -0.5603872,0.54543 a 0.33285194,0.33285194 0 0 0 -0.091018,0.3244 l 0.1280681,0.74242 c 0.02004,0.11687 -0.067342,0.17798 -0.1722745,0.1229 L 6.050703,287.68134 c -0.098185,-0.0657 -0.2287062,-0.077 -0.3406545,-0.0182 L 5.01704,288.0272 c -0.1049457,0.0552 -0.1890569,-0.006 -0.1690258,-0.12291 l 0.1274191,-0.74957 h -6.656e-4 a 0.33285194,0.33285194 0 0 0 -0.092963,-0.31725 l -0.5597378,-0.54544 c -0.084894,-0.0828 -0.05099,-0.18186 0.06631,-0.19893 l 0.7469672,-0.10797 a 0.33285194,0.33285194 0 0 0 0.2535403,-0.18658 l 0.370563,-0.70276 c 0.024631,-0.0499 0.06027,-0.0769 0.096863,-0.08 z m 10.5167076,0.003 c 0.04146,-0.004 0.08327,0.0234 0.111159,0.08 l 0.366656,0.70015 6.67e-4,-6.6e-4 a 0.33285194,0.33285194 0 0 0 0.249638,0.18462 l 0.754117,0.11058 c 0.117374,0.0171 0.151265,0.11612 0.06631,0.19894 l -0.559738,0.54544 a 0.33285194,0.33285194 0 0 0 -0.09297,0.31725 h -6.65e-4 l 0.130018,0.74957 c 0.02,0.11687 -0.06668,0.17798 -0.171625,0.1229 l -0.690409,-0.33871 c -0.09713,-0.0609 -0.222756,-0.0702 -0.331551,-0.0129 l -0.670907,0.35429 c -0.104919,0.0552 -0.192305,-0.009 -0.172278,-0.12542 l 0.130022,-0.74957 a 0.33285194,0.33285194 0 0 0 -0.09297,-0.31725 l -0.560387,-0.54544 c -0.08492,-0.0828 -0.05094,-0.18186 0.06631,-0.19893 l 0.754116,-0.11058 a 0.33285194,0.33285194 0 0 0 0.252239,-0.18398 l 0.36471,-0.70016 c 0.02463,-0.0498 0.06093,-0.0769 0.09752,-0.08 z m -12.0730521,4.35503 a 0.33285258,0.33285258 0 0 0 -0.3341505,0.33155 0.33285258,0.33285258 0 0 0 0.3341505,0.33416 h 1.6629638 a 0.33285258,0.33285258 0 0 0 0.3322,-0.33416 0.33285258,0.33285258 0 0 0 -0.3322,-0.33155 z m 2.9950228,0 a 0.33285258,0.33285258 0 0 0 -0.334154,0.33155 0.33285258,0.33285258 0 0 0 0.334154,0.33416 h 8.1503323 a 0.33285258,0.33285258 0 0 0 0.33415,-0.33416 0.33285258,0.33285258 0 0 0 -0.33415,-0.33155 z m 9.6514163,0 a 0.33285258,0.33285258 0 0 0 -0.331551,0.33155 0.33285258,0.33285258 0 0 0 0.331551,0.33416 h 1.331409 a 0.33285258,0.33285258 0 0 0 0.334154,-0.33416 0.33285258,0.33285258 0 0 0 -0.334154,-0.33155 z m -12.6464391,1.3314 a 0.33285258,0.33285258 0 0 0 -0.3341505,0.33221 0.33285258,0.33285258 0 0 0 0.3341505,0.33155 h 7.7667741 a 0.33285258,0.33285258 0 0 0 0.33415,-0.33155 0.33285258,0.33285258 0 0 0 -0.33415,-0.33221 z" />
  </g>
</svg>
